<?xml version="1.0" encoding="iso-8859-1"?>
<!-- Generator: Adobe Illustrator 19.0.0, SVG Export Plug-In . SVG Version: 6.00 Build 0)  -->
<svg version="1.1" id="Capa_1" xmlns="http://www.w3.org/2000/svg" xmlns:xlink="http://www.w3.org/1999/xlink" x="0px" y="0px"
	 viewBox="0 0 512 512" style="enable-background:new 0 0 512 512;" xml:space="preserve">
<g>
	<g>
		<path d="M256,120.96c-74.423,0-134.963,60.541-134.963,134.963S181.576,390.886,256,390.886
			c74.423,0,134.963-60.541,134.963-134.963S330.423,120.96,256,120.96z M256,360.895c-57.875,0-104.971-47.096-104.971-104.972
			S198.125,150.952,256,150.952c57.875,0,104.972,47.096,104.972,104.971S313.876,360.895,256,360.895z"/>
	</g>
</g>
<g>
	<g>
		<path d="M471.347,122.995L263.498,1.999c-4.628-2.665-10.368-2.665-14.996,0L40.653,122.995c-4.643,2.68-7.498,7.63-7.498,12.99
			v240.008c0,5.36,2.855,10.31,7.498,12.99l207.85,121.011c2.313,1.333,4.906,2.006,7.498,2.006c2.592,0,5.185-0.674,7.498-2.006
			l207.849-121.011c4.643-2.68,7.498-7.63,7.498-12.99V135.985C478.845,130.625,475.99,125.674,471.347,122.995z M256,420.878
			c-90.956,0-164.955-73.999-164.955-164.955S165.043,90.968,256,90.968c90.956,0,164.955,73.999,164.955,164.955
			S346.957,420.878,256,420.878z"/>
	</g>
</g>
<g>
</g>
<g>
</g>
<g>
</g>
<g>
</g>
<g>
</g>
<g>
</g>
<g>
</g>
<g>
</g>
<g>
</g>
<g>
</g>
<g>
</g>
<g>
</g>
<g>
</g>
<g>
</g>
<g>
</g>
</svg>
