<?xml version="1.0" encoding="iso-8859-1"?>
<!-- Generator: Adobe Illustrator 17.1.0, SVG Export Plug-In . SVG Version: 6.00 Build 0)  -->
<!DOCTYPE svg PUBLIC "-//W3C//DTD SVG 1.1//EN" "http://www.w3.org/Graphics/SVG/1.1/DTD/svg11.dtd">
<svg xmlns="http://www.w3.org/2000/svg" xmlns:xlink="http://www.w3.org/1999/xlink" version="1.1" id="Capa_1" x="0px" y="0px" viewBox="0 0 439.551 439.551" style="enable-background:new 0 0 439.551 439.551;" xml:space="preserve" width="512px" height="512px">
<g>
	<path d="M406.945,78.142c-26.58-30.561-64.908-44.838-105.139-39.178c-29.489,4.15-57.045,17.836-82.041,40.708   c-24.861-22.741-52.45-36.546-82.021-40.708C97.507,33.298,59.189,47.575,32.607,78.14C0.889,114.605-8.22,167.24,7.617,222.548   c15.841,55.324,51.188,100.533,99.876,128.021c-0.17,1.878-0.331,3.752-0.477,5.62c-0.882,11.268,2.677,22.205,10.021,30.796   c7.344,8.591,17.594,13.808,28.859,14.689c1.101,0.086,2.225,0.13,3.339,0.13c16.825,0,31.632-10.099,38.387-24.682   c10.549,1.405,21.326,2.126,32.154,2.126c10.826,0,21.603-0.721,32.152-2.126c6.755,14.583,21.562,24.682,38.387,24.682   c1.116,0,2.239-0.044,3.337-0.13c23.259-1.82,40.701-22.225,38.882-45.485c-0.146-1.868-0.307-3.742-0.477-5.62   c48.688-27.489,84.035-72.698,99.876-128.021C447.77,167.241,438.662,114.607,406.945,78.142z M88.973,199.253   c-7.799-27.239-5.07-51.14,7.485-65.576c7.64-8.784,17.84-12.556,29.491-10.914c14.062,1.979,28.287,10.358,41.979,24.406   c-3.078,5.483-6.091,11.168-8.991,16.991c-13.995,28.107-25.898,60.582-34.882,94.312   C107.658,242.758,95.644,222.553,88.973,199.253z M149.235,381.805c-0.595,0-1.191-0.023-1.776-0.069   c-5.941-0.465-11.347-3.216-15.22-7.746c-3.872-4.53-5.749-10.297-5.283-16.24c2.013-25.724,6.336-52.5,12.546-78.785   c0.031-0.119,0.059-0.239,0.086-0.359c8.939-37.728,21.765-74.429,37.253-105.532c1.608-3.23,3.258-6.403,4.928-9.53   c8.033,10.829,15.781,23.657,23.09,38.335c1.342,2.695,2.659,5.444,3.954,8.234c-19.828,45.601-33.399,100.393-37.369,151.119   C170.542,372.768,160.786,381.805,149.235,381.805z M237.183,293.696c-5.707,0.616-11.529,0.929-17.407,0.929   c-5.884,0-11.714-0.313-17.428-0.931c4.652-19.725,10.525-39.122,17.422-57.389C226.635,254.508,232.518,273.923,237.183,293.696z    M191.835,357.509c1.327-14.536,3.46-29.371,6.309-44.175c7.087,0.851,14.327,1.291,21.633,1.291c7.3,0,14.533-0.439,21.613-1.288   c2.854,14.806,5,29.648,6.328,44.172C229.35,359.808,210.202,359.808,191.835,357.509z M292.089,381.736   c-0.582,0.046-1.179,0.069-1.773,0.069c-11.551,0-21.307-9.037-22.209-20.573c-1.558-19.91-4.621-40.489-8.952-60.881   c-0.003-0.015-0.003-0.03-0.006-0.046c-0.017-0.099-0.046-0.192-0.067-0.289c-8.148-38.236-20.758-75.8-36.319-107.051   c-10.506-21.099-22.096-38.842-34.382-52.893c-0.423-0.599-0.909-1.161-1.469-1.664c-18.306-20.404-38.113-32.627-58.173-35.45   c-18.419-2.598-35.243,3.65-47.371,17.593c-17.085,19.642-21.321,50.335-11.622,84.207c8.755,30.579,25.613,56.587,48.921,75.63   c-3.628,16.11-6.559,32.349-8.715,48.395c-40.281-25.186-69.543-64.368-83.109-111.741c-13.937-48.674-6.336-94.518,20.854-125.777   c22.054-25.358,53.856-37.201,87.258-32.497c27.965,3.936,54.148,18.114,77.706,41.772c0.02,0.02,0.036,0.042,0.057,0.062   c0.028,0.028,0.06,0.052,0.088,0.079c18.366,18.482,35.133,42.732,49.902,72.393c15.493,31.114,28.322,67.829,37.262,105.569   c0.022,0.096,0.044,0.191,0.069,0.286c6.214,26.296,10.541,53.084,12.555,78.819C313.555,370.016,304.356,380.776,292.089,381.736z    M315.495,258.472c-8.984-33.73-20.887-66.204-34.883-94.311c-2.904-5.832-5.895-11.451-8.953-16.9   c13.805-14.121,28.202-22.564,41.942-24.498c11.652-1.64,21.854,2.134,29.493,10.915c12.555,14.436,15.283,38.337,7.485,65.575   C343.907,222.553,331.893,242.758,315.495,258.472z M412.707,217.042c-13.565,47.373-42.827,86.555-83.109,111.741   c-2.156-16.046-5.087-32.285-8.715-48.395c23.309-19.043,40.167-45.052,48.922-75.631c9.698-33.871,5.462-64.563-11.622-84.205   c-12.124-13.939-28.947-20.186-47.37-17.594c-17.102,2.407-33.793,11.374-49.756,26.652c-8.562-13.304-17.63-25.245-27.168-35.75   c21.802-19.756,45.547-31.551,70.704-35.092c33.406-4.7,65.21,7.145,87.261,32.499C419.043,122.526,426.644,168.37,412.707,217.042   z" fill="#FFFFFF"/>
	<path d="M157.787,80.803c-2.504-4.923-8.523-6.882-13.447-4.379c-4.922,2.504-6.883,8.524-4.379,13.447l2.033,3.997   c1.766,3.47,5.277,5.468,8.921,5.468c1.525,0,3.073-0.35,4.526-1.089c4.922-2.504,6.883-8.524,4.379-13.447L157.787,80.803z" fill="#FFFFFF"/>
	<path d="M184.961,98.35l-3.364,2.965c-4.144,3.651-4.543,9.971-0.891,14.114c1.977,2.243,4.734,3.388,7.506,3.388   c2.349,0,4.707-0.823,6.607-2.498l3.364-2.965c4.144-3.651,4.543-9.971,0.891-14.114C195.423,95.098,189.103,94.699,184.961,98.35z   " fill="#FFFFFF"/>
	<path d="M329.707,69.569l-4.291-1.302c-5.285-1.604-10.869,1.38-12.473,6.667c-1.604,5.285,1.381,10.869,6.666,12.472l4.291,1.302   c0.968,0.293,1.945,0.433,2.907,0.433c4.289,0,8.256-2.782,9.565-7.1C337.977,76.757,334.992,71.173,329.707,69.569z" fill="#FFFFFF"/>
	<path d="M261.039,219.846c-5.495-0.316-10.245,3.884-10.568,9.397l-0.263,4.477c-0.324,5.514,3.883,10.245,9.397,10.569   c0.199,0.012,0.397,0.018,0.595,0.018c5.255,0,9.662-4.101,9.974-9.415l0.263-4.477C270.76,224.901,266.553,220.17,261.039,219.846   z" fill="#FFFFFF"/>
	<path d="M174.957,222.529c1.526,0.837,3.176,1.235,4.802,1.235c3.532,0,6.957-1.876,8.775-5.191l2.157-3.932   c2.657-4.842,0.886-10.921-3.956-13.578c-4.843-2.657-10.922-0.886-13.577,3.956l-2.157,3.932   C168.344,213.793,170.115,219.872,174.957,222.529z" fill="#FFFFFF"/>
	<path d="M87.453,75.092l-4.347,1.104c-5.353,1.36-8.589,6.802-7.229,12.155c1.15,4.526,5.22,7.54,9.686,7.54   c0.814,0,1.644-0.101,2.47-0.311l4.347-1.104c5.353-1.36,8.589-6.802,7.229-12.155C98.248,76.97,92.808,73.732,87.453,75.092z" fill="#FFFFFF"/>
	<path d="M379.03,132.028l-0.715,4.427c-0.881,5.452,2.826,10.586,8.278,11.466c0.54,0.087,1.076,0.129,1.605,0.129   c4.821,0,9.067-3.495,9.86-8.407l0.715-4.427c0.881-5.452-2.826-10.586-8.278-11.466   C385.037,122.868,379.91,126.576,379.03,132.028z" fill="#FFFFFF"/>
	<path d="M47.589,152.211c-5.472-0.765-10.525,3.047-11.291,8.516l-0.622,4.441c-0.767,5.469,3.047,10.524,8.516,11.291   c0.471,0.066,0.938,0.098,1.4,0.098c4.907,0,9.19-3.616,9.891-8.614l0.622-4.441C56.871,158.032,53.058,152.977,47.589,152.211z" fill="#FFFFFF"/>
	<path d="M289.351,288.378c-4.941-2.463-10.946-0.453-13.41,4.49l-2,4.013c-2.463,4.943-0.453,10.947,4.49,13.411   c1.432,0.714,2.953,1.052,4.452,1.052c3.673,0,7.208-2.031,8.958-5.542l2-4.013C296.304,296.846,294.294,290.841,289.351,288.378z" fill="#FFFFFF"/>
	<path d="M236.722,147.724l-3.572-2.71c-4.4-3.339-10.673-2.478-14.012,1.922c-3.338,4.4-2.477,10.672,1.922,14.011l3.572,2.71   c1.808,1.372,3.931,2.034,6.037,2.034c3.021,0,6.008-1.364,7.975-3.956C241.981,157.335,241.121,151.062,236.722,147.724z" fill="#FFFFFF"/>
	<path d="M270.389,82.128l-3.5,2.804c-4.311,3.453-5.006,9.746-1.553,14.057c1.976,2.466,4.88,3.749,7.811,3.749   c2.193,0,4.401-0.718,6.246-2.196l3.5-2.804c4.311-3.453,5.006-9.746,1.553-14.057C280.991,79.37,274.698,78.677,270.389,82.128z" fill="#FFFFFF"/>
	<path d="M175.894,263.558l-0.009-4.484c-0.011-5.517-4.485-9.981-10-9.981c-0.006,0-0.014,0-0.02,0   c-5.522,0.011-9.991,4.497-9.98,10.02l0.009,4.484c0.011,5.517,4.485,9.98,10,9.98c0.006,0,0.014,0,0.02,0   C171.436,273.566,175.905,269.08,175.894,263.558z" fill="#FFFFFF"/>
</g>
<g>
</g>
<g>
</g>
<g>
</g>
<g>
</g>
<g>
</g>
<g>
</g>
<g>
</g>
<g>
</g>
<g>
</g>
<g>
</g>
<g>
</g>
<g>
</g>
<g>
</g>
<g>
</g>
<g>
</g>
</svg>
